<?xml version="1.0" encoding="UTF-8" standalone="no"?>
<!-- Created with Inkscape (http://www.inkscape.org/) -->

<svg
   xmlns:dc="http://purl.org/dc/elements/1.1/"
   xmlns:cc="http://creativecommons.org/ns#"
   xmlns:rdf="http://www.w3.org/1999/02/22-rdf-syntax-ns#"
   xmlns:svg="http://www.w3.org/2000/svg"
   xmlns="http://www.w3.org/2000/svg"
   xmlns:sodipodi="http://sodipodi.sourceforge.net/DTD/sodipodi-0.dtd"
   xmlns:inkscape="http://www.inkscape.org/namespaces/inkscape"
   version="1.1"
   id="svg4781"
   width="309.13208"
   height="309.13208"
   viewBox="0 0 309.13208 309.13208"
   sodipodi:docname="indumentaria.svg"
   inkscape:export-filename="C:\Users\heidi\Desktop\proyecto2\src\main\static\img\indumentaria.png"
   inkscape:export-xdpi="96"
   inkscape:export-ydpi="96"
   inkscape:version="0.92.2 (5c3e80d, 2017-08-06)">
  <metadata
     id="metadata4787">
    <rdf:RDF>
      <cc:Work
         rdf:about="">
        <dc:format>image/svg+xml</dc:format>
        <dc:type
           rdf:resource="http://purl.org/dc/dcmitype/StillImage" />
        <dc:title></dc:title>
      </cc:Work>
    </rdf:RDF>
  </metadata>
  <defs
     id="defs4785" />
  <sodipodi:namedview
     pagecolor="#ffffff"
     bordercolor="#666666"
     borderopacity="1"
     objecttolerance="10"
     gridtolerance="10"
     guidetolerance="10"
     inkscape:pageopacity="0"
     inkscape:pageshadow="2"
     inkscape:window-width="3200"
     inkscape:window-height="1675"
     id="namedview4783"
     showgrid="false"
     inkscape:zoom="3.0537109"
     inkscape:cx="262.24067"
     inkscape:cy="182.33066"
     inkscape:window-x="-13"
     inkscape:window-y="-13"
     inkscape:window-maximized="1"
     inkscape:current-layer="svg4781" />
  <g
     id="g4827"
     transform="translate(-186.23348,7.1401791)">
    <path
       style="fill:#f3b74b;stroke-width:0.60377359"
       d="m 251.06381,300.38435 c -0.20347,-1.24529 -0.50614,-3.07925 -0.67262,-4.07548 -0.76568,-4.58211 -4.23236,-14.42064 -6.94975,-19.72357 -5.32412,-10.38994 -10.20246,-15.82208 -21.50851,-23.95022 -7.52336,-5.40869 -21.42354,-13.99091 -29.57277,-18.25874 l -6.18868,-3.24108 0.0191,-4.54527 c 0.0213,-5.05825 1.28714,-14.38654 2.58976,-19.08466 1.33238,-4.80548 2.86576,-8.62552 9.31112,-23.19646 3.30506,-7.4717 6.34454,-14.94339 6.75438,-16.60377 0.93342,-3.78148 0.9465,-12.0302 0.0246,-15.49157 -0.38405,-1.4419 -4.23298,-12.40277 -8.55317,-24.35749 -4.32019,-11.95472 -8.25973,-23.50189 -8.75452,-25.66038 -0.57108,-2.4913 -1.01516,-8.671689 -1.216,-16.923409 l -0.31637,-12.998889 4.49558,-8.742334 c 4.78667,-9.308413 8.27633,-17.82482 9.82209,-23.970494 1.39183,-5.533693 3.6808,-21.787697 4.88992,-34.723363 l 1.05817,-11.3207549 h 12.57918 12.57918 v 5.93134137 c 0,19.13447953 7.73901,36.69769253 19.10559,43.35894853 5.70017,3.340522 10.23962,4.569405 18.09733,4.899162 12.94254,0.543147 20.78511,-2.154347 28.39861,-9.767854 3.62786,-3.627862 4.96494,-5.527028 7.17321,-10.188725 4.17635,-8.816381 6.3196,-18.8338894 6.3196,-29.5377879 v -4.695085 h 12.36586 c 12.33284,0 12.36665,0.00363 12.66451,1.3584906 0.16426,0.7471698 0.58985,4.61886798 0.94575,8.6037737 1.01743,11.3919696 2.92414,25.9794906 4.23918,32.4325036 1.68803,8.283319 4.21886,14.919893 10.08101,26.435422 l 5.07144,9.962264 -0.26038,12.981132 c -0.31691,15.799038 -0.0225,14.584345 -10.66039,43.990598 -11.62393,32.13212 -11.61401,31.56155 -0.9675,55.62059 3.50387,7.91805 7.19639,16.92327 8.20561,20.0116 2.30837,7.06389 3.71141,15.79856 3.477,21.64616 l -0.18096,4.51423 -8.15094,4.45645 c -15.29815,8.36411 -30.07948,18.3197 -37.28935,25.11529 -9.36236,8.82439 -16.57444,23.15974 -18.92968,37.62622 l -0.71265,4.37736 h -19.50681 -19.50679 z m 30.30925,-8.75472 c 0.30633,-0.4151 1.17279,-2.9283 1.92545,-5.58491 3.34236,-11.79723 10.12707,-23.63145 18.14498,-31.64937 4.0456,-4.0456 13.48997,-11.30738 21.70585,-16.68965 l 2.63823,-1.72832 -0.29897,-8.47577 c -0.36774,-10.42535 -0.7597,-11.73398 -9.21792,-30.77578 -3.49317,-7.86411 -7.01793,-16.59908 -7.83281,-19.41106 -2.9951,-10.33547 -3.29051,-20.94052 -0.87625,-31.45686 0.62395,-2.71785 4.65137,-14.67257 8.94984,-26.56604 4.29847,-11.89348 8.12329,-23.254698 8.49959,-25.247151 0.48062,-2.544706 0.63154,-16.468033 0.50722,-46.792453 L 325.34129,4.082454 h -2.09921 c -2.05632,0 -2.10845,0.061695 -2.55093,3.018868 -1.95458,13.062817 -3.53039,18.596493 -7.48914,26.299081 -6.35722,12.369333 -15.77453,20.046285 -28.91732,23.573282 -6.84123,1.835906 -19.6659,1.844281 -26.56604,0.01733 -8.05418,-2.132468 -14.30996,-5.598044 -19.62793,-10.87346 C 228.84691,36.94772 223.74311,25.692795 221.61115,9.7767408 L 220.8484,4.082454 h -2.09318 -2.09317 l -0.18339,43.773586 c -0.13293,31.728652 0.0108,44.687336 0.52227,47.09434 0.38811,1.826415 3.89855,12.15094 7.80099,22.9434 10.73702,29.69394 10.93592,30.45294 10.9699,41.86007 0.0365,12.2435 -1.0922,16.33644 -10.18447,36.93238 -8.32009,18.84678 -9.22719,22.0002 -9.22719,32.07709 v 7.4311 l 3.60248,2.39283 c 14.6998,9.76388 22.49309,16.65884 27.92085,24.70244 5.1042,7.56409 8.46814,14.9043 11.3277,24.7173 l 1.27558,4.37736 h 10.16465 c 7.43215,0 10.31439,-0.20289 10.72164,-0.75472 z m -75.27705,-65.27941 c 0,-3.88368 1.61975,-12.49763 3.10356,-16.50496 0.7125,-1.92426 3.94292,-9.47997 7.17872,-16.79046 6.58322,-14.87317 8.01745,-19.02343 9.07614,-26.26383 0.83365,-5.70138 0.42147,-14.27697 -0.93687,-19.49198 -0.48963,-1.87983 -4.45179,-13.26458 -8.80481,-25.29943 -4.35301,-12.03485 -8.29755,-23.883263 -8.76565,-26.329796 -0.6057,-3.165706 -0.85109,-9.307273 -0.85109,-21.3008 0,-9.268903 -0.20377,-16.838817 -0.45283,-16.822038 -0.24906,0.01678 -2.42758,4.024332 -4.84116,8.90566 l -4.38833,8.875152 0.011,8.222799 c 0.0168,12.578204 0.85342,16.054647 9.77624,40.622513 9.15922,25.2188 9.43259,26.12628 9.94128,33.00097 0.69574,9.40258 -0.64937,14.22089 -9.42202,33.75067 -6.53327,14.54444 -8.23256,19.45802 -9.40083,27.18301 -0.98966,6.54401 -1.06934,6.35126 3.76176,9.09987 4.30019,2.44655 5.01492,2.32437 5.01492,-0.85735 z m 134.9434,0.65495 3.62264,-1.94901 -0.10883,-4.82647 c -0.15453,-6.85324 -2.14612,-13.02313 -9.80804,-30.38508 -3.6151,-8.19182 -7.02743,-16.38857 -7.58297,-18.21498 -1.47387,-4.84561 -1.84418,-15.03293 -0.73524,-20.22642 0.49636,-2.32453 4.46632,-14.07759 8.82216,-26.11792 4.35583,-12.04032 8.34216,-23.58749 8.8585,-25.660374 0.56688,-2.275786 1.06487,-7.835146 1.25703,-14.033027 l 0.31823,-10.264151 -4.73684,-9.056604 -4.73683,-9.056604 -0.36442,18.716982 c -0.29087,14.940148 -0.57095,19.446346 -1.38802,22.331532 -0.56299,1.987996 -4.56308,13.371066 -8.88909,25.295696 -4.32601,11.92464 -8.25235,23.70312 -8.72519,26.17441 -1.73373,9.06143 -0.77936,20.19012 2.46895,28.78982 0.763,2.01998 3.96447,9.5142 7.11437,16.65383 3.14991,7.13962 6.30066,14.84539 7.00169,17.12394 1.09123,3.54686 2.45871,12.18353 2.47487,15.63077 0.007,1.48352 0.98588,1.30699 5.13703,-0.92634 z m 31.09434,32.86141 -11.16981,-2.8719 -0.15939,-19.10981 -0.15939,-19.10981 2.27259,-0.61098 c 14.71587,-3.95633 22.77376,-5.47785 29.01044,-5.47785 7.05992,0 12.25779,1.03134 15.79351,3.13367 2.87072,1.70692 7.64902,6.32807 9.24591,8.9418 0.71009,1.16227 1.57711,2.31282 1.92672,2.5568 0.34961,0.24397 4.43942,0.44358 9.08847,0.44358 4.64906,0 8.73887,-0.19961 9.08848,-0.44358 0.3496,-0.24398 1.21663,-1.39453 1.92672,-2.5568 1.9662,-3.21822 6.74608,-7.59555 10.1424,-9.28821 4.37629,-2.18106 7.53705,-2.75581 15.24693,-2.7725 6.77456,-0.0147 10.51289,0.6995 28.65208,5.47361 l 2.26415,0.59591 v 18.94877 18.94878 l -1.96226,0.62627 c -1.07925,0.34444 -6.44529,1.74591 -11.92453,3.11437 -9.73962,2.43249 -10.15793,2.48364 -18.71698,2.28847 -8.3408,-0.19018 -8.94203,-0.28838 -12.71653,-2.07697 -2.33032,-1.10425 -5.25547,-3.17102 -7.10326,-5.0188 -4.38101,-4.38101 -5.85964,-7.46217 -7.62857,-15.8963 l -0.34823,-1.66038 h -6.9204 c -7.72589,0 -6.97037,-0.467 -7.81423,4.83019 -1.06711,6.69858 -7.28323,14.47422 -14.18622,17.74529 -3.85322,1.82589 -4.21832,1.88065 -13.3203,1.99782 l -9.35849,0.12047 z m 29.88679,-8.96083 c 7.32771,-3.87985 10.13967,-12.34577 6.49057,-19.54107 -4.27229,-8.4241 -13.49151,-10.42812 -29.43397,-6.3982 l -7.84905,1.98408 v 10.8301 10.8301 l 7.24528,1.94174 c 6.47022,1.73401 7.98805,1.92516 14.18868,1.78686 5.71136,-0.1274 7.37193,-0.38178 9.35849,-1.43361 z m 73.75779,0.11358 c 10.34228,-2.39583 9.31686,-0.8917 9.12409,-13.38355 l -0.1649,-10.68627 -7.84905,-1.98355 c -15.33688,-3.87582 -24.51676,-2.14076 -28.98145,5.47766 -4.84746,8.27156 -0.61723,18.67782 8.75112,21.52754 3.4022,1.0349 12.49867,0.58206 19.12019,-0.95183 z M 361.06457,192.96296 c -0.6468,-0.64679 -0.45376,-23.67305 0.23452,-27.97484 4.49695,-28.10613 26.31189,-50.45401 54.519,-55.85091 6.14577,-1.17588 18.22847,-1.15991 24.51386,0.0324 24.27459,4.60481 43.55805,21.46925 51.74343,45.25245 2.25719,6.5584 3.22818,14.7101 3.22818,27.10125 0,9.57315 -0.13205,11.15986 -0.95504,11.47567 -1.30917,0.50237 -132.78109,0.46683 -133.28395,-0.036 z m 119.01901,-25.10177 c 0.16681,-4.42362 0.25749,-4.69448 1.69222,-5.05457 1.3351,-0.33509 1.46873,-0.60584 1.12007,-2.2693 -0.935,-4.46084 -6.1682,-15.52259 -8.44393,-17.84847 -0.7343,-0.75048 -1.00058,-0.72599 -2.00683,0.18465 -2.98867,2.70472 -6.72646,12.37987 -6.72646,17.41128 0,2.01764 0.17267,2.28824 1.46006,2.28824 3.07934,0 3.37013,0.43971 3.37013,5.09604 0,2.3997 0.19191,4.55499 0.42645,4.78954 0.23455,0.23454 2.34021,0.34775 4.67925,0.25157 l 4.25279,-0.17488 z m -89.83663,-7.57641 c 0,-5.03141 -3.73778,-14.70656 -6.72646,-17.41128 -1.00624,-0.91064 -1.27252,-0.93513 -2.00682,-0.18465 -2.25478,2.30448 -7.46832,13.3624 -8.44973,17.92191 l -0.42237,1.96226 h 8.80269 8.80269 z m 64.84107,1.3332 c 0.20157,-0.52527 0.3705,-2.08754 0.37541,-3.4717 0.0223,-6.29994 3.54081,-15.26067 8.41184,-21.42298 l 2.49167,-3.1522 -2.22001,-2.0338 c -5.96393,-5.46367 -18.36048,-10.9904 -28.01318,-12.48904 -9.70111,-1.50616 -21.979,0.2575 -31.68989,4.55211 -3.80424,1.68242 -10.55907,6.03787 -13.13726,8.4708 l -1.65733,1.56394 2.46637,3.1202 c 4.67976,5.92034 8.38354,15.07554 8.40371,20.77279 0.005,1.28037 0.17207,2.93926 0.37231,3.68643 l 0.36406,1.35849 h 26.7329 c 23.81995,0 26.77285,-0.10406 27.0994,-0.95504 z"
       id="path4831"
       inkscape:connector-curvature="0" />
    <path
       style="fill:#393938;stroke:#393938;stroke-width:0.60377359;stroke-opacity:1"
       d="m 251.21688,299.44063 c -0.49693,-4.81482 -2.15619,-10.91515 -4.66895,-17.1655 -6.5173,-16.21146 -15.0445,-24.86752 -39.18647,-39.77862 -4.51487,-2.78857 -11.10886,-6.49327 -14.65332,-8.23266 l -6.44446,-3.16252 -0.0411,-3.01887 c -0.0635,-4.66069 1.00564,-12.77883 2.38552,-18.11321 1.6391,-6.3365 3.58739,-11.33797 10.20457,-26.19628 3.01513,-6.77022 5.88736,-13.87359 6.38272,-15.78526 1.07477,-4.14767 1.17198,-11.62836 0.20223,-15.56242 -0.38414,-1.55837 -4.1517,-12.34283 -8.37235,-23.96548 -10.12626,-27.88525 -10.37155,-28.897264 -10.71688,-44.216552 l -0.27539,-12.216555 1.85451,-2.890017 c 2.9911,-4.661217 9.56985,-18.789579 11.47162,-24.636167 2.66717,-8.199634 3.93931,-16.709428 7.10273,-47.5124047 l 0.35654,-3.4716982 12.16713,-0.00141 12.16713,-0.00141 -0.1986,4.5284657 c -0.10923,2.49065605 0.24818,7.5856285 0.79423,11.3221605 3.73011,25.5241767 17.38359,39.0955817 39.332,39.0955817 11.00454,0 19.27219,-3.219272 26.21216,-10.206532 8.72103,-8.780463 13.34648,-21.885479 13.49817,-38.24353741 l 0.0602,-6.48780449 12.22641,-0.00276 c 11.24207,-0.00254 12.22656,0.082306 12.2282,1.0538421 0.002,1.5570252 1.66391,18.5578608 2.41516,24.7157358 0.88753,7.274977 2.84398,18.569331 3.85037,22.227661 1.80244,6.552036 6.62235,17.61306 11.13946,25.56349 l 2.51776,4.43142 -0.008,11.870467 c -0.006,9.224193 -0.25934,13.081866 -1.13565,17.304434 -0.62024,2.98868 -4.52613,14.80755 -8.67976,26.26415 -9.50466,26.21592 -9.49898,26.19623 -9.49025,32.8643 0.009,7.08798 0.67086,9.39935 6.32195,22.08718 11.06409,24.84109 13.35183,32.71962 12.88381,44.36928 l -0.19406,4.83019 -6.34679,3.32075 c -8.40986,4.40019 -20.29554,11.73488 -28.58987,17.64289 -11.47609,8.17437 -17.161,14.59412 -22.60496,25.52692 -2.7113,5.44498 -5.94402,15.27357 -6.53822,19.87854 -0.21751,1.68567 -0.4502,3.47241 -0.51708,3.97052 -0.10471,0.77985 -2.80668,0.92778 -19.45061,1.06486 l -19.32899,0.15919 -0.33279,-3.22437 z m 30.12971,-6.91459 c 0.3765,-0.24397 1.25716,-2.48132 1.95702,-4.97188 3.74244,-13.31811 10.02657,-24.44172 18.71821,-33.13337 6.48125,-6.48125 25.29876,-19.65345 37.50815,-26.25558 5.55611,-3.00443 5.74174,-3.17296 5.92399,-5.37832 0.21794,-2.63732 -1.26682,-10.40041 -2.99742,-15.67208 -0.65852,-2.00594 -3.89105,-9.71835 -7.18342,-17.13869 -3.29237,-7.42035 -6.57441,-15.19522 -7.29343,-17.27751 -1.64053,-4.75099 -2.23046,-15.63667 -1.14648,-21.15543 0.40647,-2.06944 4.37703,-13.77135 8.82346,-26.00425 4.44643,-12.2329 8.53273,-24.45414 9.08067,-27.158301 0.64438,-3.18016 1.02026,-8.226029 1.06425,-14.286666 l 0.068,-9.369999 -5.83039,-11.773585 c -3.2067,-6.475471 -6.50819,-13.94717 -7.33664,-16.603773 -1.8309,-5.871205 -3.66068,-16.399148 -4.94344,-28.442942 -1.58326,-14.8652716 -1.45491,-14.3944079 -3.98153,-14.6064562 -1.26054,-0.1057908 -2.41392,0.1460063 -2.76566,0.6037736 -0.33184,0.4318853 -0.92947,3.3663783 -1.32805,6.5210956 -2.45214,19.408178 -11.87574,35.174207 -25.15158,42.079531 -6.54583,3.404768 -12.49618,4.974507 -20.51177,5.411144 -24.03672,1.309356 -41.51519,-11.024342 -48.94621,-34.538956 -1.15947,-3.669008 -2.4691,-9.458335 -2.91028,-12.865171 -0.44119,-3.4068357 -1.0779,-6.4699947 -1.41493,-6.8070193 -0.33702,-0.3370252 -1.52543,-0.5250572 -2.64091,-0.4178488 -2.5532,0.2453875 -2.60719,0.4289238 -3.87602,13.1760561 -1.31109,13.171761 -3.44356,25.014279 -5.70784,31.698113 -1.01247,2.98868 -4.32097,10.434035 -7.35221,16.545232 l -5.51135,11.111276 0.35941,10.0208 c 0.20254,5.646937 0.76049,11.653356 1.2783,13.761081 0.50539,2.057145 4.56741,13.876015 9.02671,26.264155 4.45929,12.38813 8.44383,24.2368 8.85452,26.33038 0.93242,4.75317 0.44034,14.8643 -0.94603,19.43878 -0.55352,1.82641 -3.93415,9.97735 -7.51251,18.1132 -3.57836,8.13585 -6.94314,16.15095 -7.4773,17.81133 -1.49351,4.64236 -2.80826,11.53997 -2.80826,14.73296 v 2.88045 l 6.04994,3.16383 c 11.33318,5.92673 30.55048,19.29461 37.19478,25.87334 8.6347,8.54948 14.83479,19.36403 18.6505,32.53125 0.8441,2.91283 1.86677,5.50701 2.27259,5.76484 0.93828,0.59614 19.82666,0.6191 20.74315,0.0252 z M 385.41677,262.1907 c -5.21584,-0.58118 -23.70865,-5.32267 -24.28322,-6.22612 -0.24916,-0.39177 -0.45717,-8.62621 -0.46226,-18.29876 -0.007,-13.93989 0.15792,-17.72518 0.79692,-18.2555 0.44339,-0.36798 5.94528,-1.91429 12.22641,-3.43624 11.20168,-2.71423 11.58204,-2.76344 19.87309,-2.57104 7.68554,0.17835 8.76811,0.34358 11.92612,1.82021 4.04001,1.88903 9.72999,7.02719 11.39406,10.28904 l 1.15719,2.26828 h 9.89262 9.89263 l 1.51597,-2.58681 c 2.13946,-3.65072 7.09246,-8.08463 11.14635,-9.97818 3.11537,-1.45518 4.27763,-1.63499 11.90525,-1.84184 8.39395,-0.22762 8.53794,-0.20874 20.67114,2.71145 l 12.21831,2.94066 0.008,18.73121 0.008,18.7312 -12.83019,3.16988 c -13.51187,3.3383 -17.16708,3.71219 -25.09044,2.56646 -10.85967,-1.57032 -19.22524,-9.55191 -21.19306,-20.22029 -0.36396,-1.97317 -1.00095,-3.80297 -1.41554,-4.06622 -0.96128,-0.6104 -12.59207,-0.62947 -13.54713,-0.0222 -0.39483,0.25105 -1.12564,2.41209 -1.62401,4.80232 -1.61227,7.73243 -6.41731,13.90388 -13.35216,17.14909 -5.74534,2.68857 -11.64878,3.34692 -20.83426,2.32341 z m 16,-10.49846 c 11.78722,-5.02451 12.18755,-21.93039 0.64655,-27.30441 -4.46459,-2.07893 -14.28599,-2.04255 -22.87676,0.0847 -9.86189,2.44204 -8.86413,0.9581 -8.86413,13.18339 0,7.8457 0.19733,10.66883 0.77951,11.15199 0.42873,0.35582 4.02873,1.46223 8,2.45868 6.17026,1.54821 8.14259,1.7858 13.56011,1.63341 4.2824,-0.12045 7.12333,-0.51239 8.75472,-1.2078 z m 75.14499,-0.38267 c 4.12063,-1.00622 7.84966,-2.12628 8.28674,-2.48902 0.60134,-0.49908 0.79468,-3.21533 0.79468,-11.16459 0,-12.22529 0.99776,-10.74135 -8.86413,-13.18339 -8.59077,-2.12729 -18.41217,-2.16367 -22.87676,-0.0847 -3.73288,1.7382 -6.63769,5.11218 -7.82362,9.08723 -1.11775,3.74655 -1.1115,4.80649 0.0514,8.72247 1.00703,3.39105 4.18175,7.41784 6.99527,8.87277 5.08593,2.63004 13.30232,2.71392 23.4364,0.23927 z M 360.85521,191.79044 c -0.7131,-1.85833 0.29244,-23.96594 1.31519,-28.91553 2.83003,-13.69586 8.92705,-25.15467 18.45277,-34.68039 20.01251,-20.01251 50.26303,-25.32532 75.87101,-13.32502 16.09963,7.54454 29.30065,22.25654 34.87743,38.86948 2.85235,8.49703 3.38619,12.18731 3.74537,25.89065 l 0.3442,13.13207 h -67.11662 c -61.11713,0 -67.14995,-0.0868 -67.48935,-0.97126 z m 123.88231,-13.82119 v -4.83019 l -1.96226,-0.1892 -1.96227,-0.1892 v -4.79193 c 0,-4.34085 0.11032,-4.79193 1.17192,-4.79193 0.64455,0 1.34381,-0.27814 1.5539,-0.61808 0.96325,-1.55857 -5.08401,-15.57122 -8.46213,-19.60834 l -1.51565,-1.81132 -1.85418,2.11321 c -3.63615,4.14411 -5.91937,10.18521 -6.15969,16.29768 l -0.13039,3.31655 2.1132,0.30609 2.11321,0.30609 0.17628,4.67572 0.17628,4.6757 -49.38383,0.15448 -49.38382,0.15448 -0.18061,4.16652 c -0.0993,2.29158 -0.0394,4.53448 0.13319,4.98422 0.26142,0.68125 9.76304,0.79202 56.93531,0.66368 l 56.62154,-0.15404 z M 390.6195,162.30471 c 0.63382,-1.65171 -1.02367,-9.70114 -2.74208,-13.31659 -0.94701,-1.99246 -2.56581,-4.57359 -3.59734,-5.73585 l -1.8755,-2.11321 -1.51186,1.81132 c -3.23812,3.87952 -9.22032,17.54954 -8.50064,19.42496 0.46908,1.22243 17.75694,1.15544 18.22742,-0.0706 z m 65.18276,-4.59488 c 1.1287,-8.51813 3.01318,-13.32511 7.73958,-19.74228 1.52932,-2.0764 2.78059,-4.12557 2.78059,-4.55371 0,-1.34088 -7.28784,-6.44913 -13.58491,-9.52206 -8.49101,-4.14354 -14.9157,-5.59586 -24.75472,-5.59586 -9.89186,0 -16.30109,1.45736 -24.75471,5.62885 -6.4702,3.19275 -13.58491,8.14922 -13.58491,9.46393 0,0.44196 1.25127,2.50245 2.78059,4.57885 1.52932,2.07641 3.26475,4.72623 3.8565,5.88849 1.73066,3.39917 3.46668,9.65518 3.94012,14.19881 0.24164,2.31896 0.5595,4.42284 0.70637,4.6753 0.14687,0.25247 12.39995,0.38832 27.22907,0.30189 l 26.96203,-0.15713 z"
       id="path4829"
       inkscape:connector-curvature="0" />
    <path
       style="fill:#cc3333;fill-opacity:1;stroke:#cc3333;stroke-width:0.34733483;stroke-miterlimit:4;stroke-dasharray:none;stroke-opacity:1"
       d="m 738.90633,264.60905 c -3.39091,-11.69854 -6.62907,-19.04962 -11.85733,-26.9178 -2.88927,-4.34812 -7.93883,-9.84831 -12.57274,-13.69467 -3.17539,-2.63572 -9.52614,-7.31492 -14.41439,-10.62041 l -4.68902,-3.1708 6.5e-4,-6.06321 c 10e-4,-11.78103 0.35934,-13.08077 9.26177,-33.61845 6.88341,-15.87986 8.39857,-20.03382 9.37516,-25.70278 0.93749,-5.44203 0.88171,-17.27862 -0.1042,-22.11365 -0.94748,-4.64652 -2.17152,-8.39088 -8.97002,-27.439452 -6.78584,-19.013083 -8.84035,-25.187902 -9.11919,-27.407717 -0.36921,-2.939235 -0.51776,-30.162529 -0.33158,-60.7660421 l 0.1758,-28.8952819 1.98497,0.06649 1.98498,0.06649 0.74108,5.210022 c 1.72678,12.1397769 4.57657,20.5950387 9.43152,27.983087 6.75401,10.277943 15.38237,16.63973 26.42478,19.483298 3.88201,0.999667 7.70423,1.392049 13.56007,1.392049 9.66152,0 15.36699,-1.2044 22.51552,-4.752932 8.88647,-4.411239 15.32535,-11.139348 20.38166,-21.2971809 3.19105,-6.41063268 4.65068,-11.3499702 6.32954,-21.4189821 0.43531,-2.6108 0.85164,-5.034532 0.92518,-5.386071 0.23093,-1.103887 0.66007,-1.329069 2.53284,-1.329069 h 1.70922 l 0.0688,31.0864682 c 0.0862,38.9354228 -0.0988,57.3763618 -0.59506,59.3363678 -0.59744,2.359409 -3.91168,12.140096 -8.46783,24.989493 -8.35459,23.561853 -9.53135,27.587373 -10.22117,34.965053 -0.33463,3.57884 -0.15992,10.52092 0.35189,13.98228 0.48182,3.25859 1.42605,7.38169 2.26414,9.88665 1.12812,3.37185 4.27372,11.02881 8.53214,20.76883 5.74818,13.14742 6.80375,16.02282 7.52307,20.49298 0.3369,2.09362 0.7367,8.85885 0.81559,13.80102 l 0.0399,2.49949 -4.38906,2.95545 c -6.9666,4.69108 -13.60471,9.74468 -17.78267,13.53795 -9.01675,8.18654 -16.05677,19.81189 -20.14367,33.2637 -1.54435,5.08316 -1.89426,5.94561 -2.49822,6.15767 -0.28257,0.0992 -4.96184,0.22167 -10.39839,0.27215 l -9.88462,0.0918 z"
       id="path4837"
       inkscape:connector-curvature="0"
       transform="translate(-478.85896,25.934334)" />
    <path
       style="fill:#3a3ae5;fill-opacity:1;stroke:#3a3ae5;stroke-width:0.34733483;stroke-miterlimit:4;stroke-dasharray:none;stroke-opacity:1"
       d="m 680.81467,201.6382 c -3.06727,-1.58332 -4.44332,-2.64739 -4.86862,-3.76482 -0.30272,-0.79537 -0.29625,-1.21412 0.059,-3.81725 1.24121,-9.09555 2.55966,-12.99933 10.31963,-30.55538 7.51457,-17.00084 8.81662,-21.2137 8.81662,-28.52677 0,-8.8345 -0.24232,-9.74188 -9.30521,-34.84346 -6.75718,-18.715456 -8.63221,-24.5985 -9.70488,-30.449691 -0.42544,-2.320681 -0.50186,-3.808594 -0.59463,-11.577828 l -0.10645,-8.914928 3.47687,-6.946697 c 1.91228,-3.820683 3.92006,-7.7282 4.46174,-8.68337 l 0.98488,-1.736675 0.16697,0.926227 c 0.0918,0.509424 0.2324,6.969852 0.31238,14.356506 0.15693,14.492725 0.38829,20.023564 0.9531,22.783957 0.50093,2.448201 4.80224,15.294044 9.81627,29.316269 5.51876,15.43373 7.78125,22.24129 8.2024,24.68004 0.99955,5.78814 1.05026,13.36568 0.12538,18.73681 -0.97869,5.68368 -2.61227,10.32928 -7.85747,22.34521 -4.88005,11.17943 -7.12223,16.44434 -7.95484,18.67901 -1.49365,4.00884 -2.78046,10.32805 -3.1509,15.47332 -0.1147,1.5932 -0.28014,3.07907 -0.36765,3.30195 -0.27176,0.69212 -1.3664,0.46582 -3.78458,-0.78243 z"
       id="path4839"
       inkscape:connector-curvature="0"
       transform="translate(-478.85896,25.934334)" />
    <path
       style="fill:#3a3ae5;fill-opacity:1;stroke:#3a3ae5;stroke-width:0.34733483;stroke-miterlimit:4;stroke-dasharray:none;stroke-opacity:1"
       d="m 814.98195,202.5364 c -0.0501,-0.15919 -0.15715,-1.17515 -0.23788,-2.25767 -0.30962,-4.15153 -1.56708,-11.34934 -2.46765,-14.12495 -0.84178,-2.59445 -3.58265,-9.25429 -7.96707,-19.35862 -6.95529,-16.02916 -7.67436,-18.07168 -8.71428,-24.75291 -0.60347,-3.87715 -0.73395,-12.32533 -0.24195,-15.66623 0.66205,-4.49558 2.90659,-11.34265 12.20913,-37.244441 4.16878,-11.607467 6.08412,-17.495339 6.35974,-19.550273 0.39992,-2.981611 0.66888,-9.833832 0.9368,-23.866581 0.13859,-7.259298 0.27282,-13.382253 0.29828,-13.606566 0.0255,-0.224314 2.10425,3.534793 4.61954,8.353571 l 4.57324,8.761414 -0.004,2.645365 c -0.009,6.253271 -0.63573,16.975812 -1.18937,20.359442 -0.32105,1.962173 -2.4,8.157948 -8.35242,24.89233 -5.23613,14.720639 -9.21485,26.484349 -9.7113,28.713009 -0.49871,2.2388 -0.41444,13.70937 0.12218,16.63094 0.65952,3.59062 1.65787,6.17247 8.25347,21.34434 5.69875,13.10887 7.85475,18.78209 8.93187,23.50299 0.622,2.72616 1.08964,7.57569 0.98002,10.16297 l -0.0725,1.71115 -3.51993,1.82009 c -3.39478,1.75537 -4.6131,2.14339 -4.80596,1.53063 z"
       id="path4841"
       inkscape:connector-curvature="0"
       transform="translate(-478.85896,25.934334)" />
    <path
       style="fill:#ffffff;fill-opacity:1;stroke:#b06813;stroke-width:0.34733483;stroke-miterlimit:4;stroke-dasharray:none;stroke-opacity:1"
       d="m 691.32061,208.11904 c -2.0377,-1.27797 -4.82506,-2.95263 -6.19414,-3.72146 -1.36908,-0.76882 -2.48923,-1.43822 -2.48923,-1.48753 0,-0.0493 0.40686,-0.0246 0.90413,0.0549 1.19697,0.19141 1.30496,-0.04 1.63357,-3.50073 0.31937,-3.36354 0.99173,-7.67807 1.60774,-10.31692 0.98849,-4.23443 1.63187,-5.87069 9.05272,-23.02317 6.72397,-15.54169 8.17204,-20.12647 8.81282,-27.90256 0.30891,-3.74866 0.15865,-8.90561 -0.37022,-12.70617 -0.515,-3.70092 -1.41489,-6.49679 -9.13939,-28.395119 -4.02286,-11.40449 -8.30582,-24.128235 -8.88568,-26.397448 -0.62589,-2.44932 -0.82996,-6.186318 -1.06182,-19.443786 -0.27735,-15.858521 -0.38737,-19.235651 -0.64148,-19.689717 -0.14616,-0.261172 -0.583,0.37151 -1.68689,2.443142 -0.8193,1.53757 -1.51993,2.704736 -1.55694,2.5937 -0.037,-0.111039 0.60017,-1.60657 1.41595,-3.323407 4.20904,-8.858006 5.64609,-13.003466 7.29639,-21.047963 1.31515,-6.4108121 2.19373,-12.75510328 3.73578,-26.976339 0.45756,-4.219744 0.99367,-6.934932 1.4215,-7.199347 0.1137,-0.07027 0.14177,15.4587588 0.0646,35.72388 -0.0793,20.82205 -0.0429,39.779092 0.087,45.226231 l 0.22358,9.378041 0.82765,2.778678 c 0.91263,3.063987 3.62937,10.932369 9.59402,27.786787 5.86711,16.578797 7.28099,21.076017 7.93511,25.239667 0.39924,2.54124 0.55385,13.4517 0.24139,17.03337 -0.61756,7.07868 -2.01039,11.22922 -9.98047,29.74105 -6.10894,14.18901 -7.6534,18.34122 -8.48382,22.80832 -0.25646,1.37957 -0.40971,4.1634 -0.51241,9.30786 l -0.14653,7.33962 z"
       id="path4843"
       inkscape:connector-curvature="0"
       transform="translate(-478.85896,25.934334)" />
    <path
       style="fill:#ffffff;fill-opacity:1;stroke:#3a3ae5;stroke-width:0.347;stroke-miterlimit:4;stroke-dasharray:none;stroke-opacity:1"
       d="m 804.52917,205.54546 c -0.0248,-5.3911 -0.39259,-10.67111 -0.9315,-13.37121 -0.62123,-3.1125 -2.13976,-7.10973 -7.0668,-18.60192 -5.97609,-13.93905 -8.33819,-19.82631 -9.2419,-23.03434 -2.1665,-7.69072 -2.80518,-16.95615 -1.7109,-24.82047 0.83649,-6.01162 1.98587,-9.68862 11.32768,-36.238606 4.40033,-12.505983 6.79551,-19.774191 7.10388,-21.556829 0.20451,-1.182226 0.31117,-13.092836 0.40935,-45.710351 0.12724,-42.268376 0.14935,-44.043512 0.52916,-42.483805 0.21801,0.895245 0.822,5.427965 1.34219,10.07271 1.51326,13.5116111 2.81074,21.603031 4.51028,28.127299 1.19625,4.592206 3.75905,10.51822 9.90175,22.896028 1.88842,3.805243 3.38815,6.963954 3.33275,7.019361 -0.0554,0.05541 -1.31081,-2.224372 -2.78979,-5.066173 -4.16091,-7.995069 -6.14808,-11.672096 -6.17109,-11.418936 -0.0116,0.127356 -0.0567,0.439958 -0.10024,0.69467 -0.0435,0.254712 -0.19455,5.777336 -0.33557,12.272498 -0.33483,15.422329 -0.64776,22.931763 -1.05661,25.355443 -0.45991,2.726393 -1.86913,6.995163 -8.21752,24.89233 -6.1257,17.269381 -8.43264,24.128941 -9.50073,28.249901 -0.99168,3.82614 -1.31454,8.85447 -0.92924,14.47228 0.6207,9.05003 1.44089,11.70423 9.159,29.63924 6.8117,15.82874 7.90129,18.65182 8.79219,22.78002 0.62572,2.8995 1.40401,8.10144 1.64061,10.96554 0.19664,2.38051 0.41897,2.6239 1.90782,2.08852 0.58751,-0.21127 1.10341,-0.34891 1.14645,-0.30587 0.043,0.043 -0.63048,0.47312 -1.49672,0.95574 -2.30085,1.2819 -7.79933,4.63283 -9.72689,5.92784 -0.91758,0.61647 -1.69908,1.12031 -1.73667,1.11966 -0.0376,0 -0.0785,-2.2149 -0.0909,-4.92057 z"
       id="path4845"
       inkscape:connector-curvature="0"
       transform="translate(-478.85896,25.934334)" />
    <path
       style="fill:#cc3333;fill-opacity:1;stroke:#cc3333;stroke-width:0.69466966;stroke-miterlimit:4;stroke-dasharray:none;stroke-opacity:1"
       d="m 879.9221,134.67229 c -0.13814,-1.11078 -0.38004,-3.23609 -0.53757,-4.72291 -0.58253,-5.49843 -3.61836,-12.67992 -7.85836,-18.5896 l -2.5909,-3.61117 1.27522,-1.33105 c 3.31789,-3.46312 12.64153,-8.734607 18.99008,-10.736781 11.16431,-3.520941 22.39117,-3.766346 32.72509,-0.715328 5.90126,1.742303 14.88587,6.074979 18.84326,9.086829 4.56317,3.4729 4.49061,3.24652 2.04858,6.39137 -4.77298,6.14665 -7.76186,13.37778 -8.50717,20.58177 -0.24573,2.37506 -0.67376,4.54528 -0.9512,4.82271 -0.34791,0.34792 -8.67701,0.55707 -26.84514,0.6741 l -26.34073,0.16967 z"
       id="path4847"
       inkscape:connector-curvature="0"
       transform="translate(-478.85896,25.934334)" />
    <path
       style="fill:#3a3ae5;fill-opacity:1;stroke:#3a3ae5;stroke-width:0.69466966;stroke-miterlimit:4;stroke-dasharray:none;stroke-opacity:1"
       d="m 853.93521,156.53386 -3.70491,-0.26241 -0.13829,-3.46789 c -0.0761,-1.90734 -0.02,-3.93925 0.1246,-4.51536 l 0.2629,-1.04745 h 49.31272 49.31272 l 0.0694,-1.50512 c 0.0646,-1.40089 0.0827,-1.41692 0.26232,-0.23156 l 0.19293,1.27356 h 4.60037 4.60037 l 0.0657,-1.73667 0.0657,-1.73668 0.28162,1.85246 c 0.27314,1.79669 0.34086,1.85674 2.24985,1.99486 l 1.96823,0.1424 v 4.5296 4.52961 l -15.35833,0.30645 c -17.82947,0.35577 -88.70559,0.26108 -94.16792,-0.1258 z"
       id="path4851"
       inkscape:connector-curvature="0"
       transform="translate(-478.85896,25.934334)" />
  </g>
  <path
     style="fill:#3a3ae5;fill-opacity:0.18926553;stroke:#3a3ae4;stroke-width:0.22726448;stroke-miterlimit:4;stroke-dasharray:none;stroke-opacity:0.18823529"
     d="m 191.98044,257.37146 -6.71314,-1.64811 v -10.34316 c 0,-7.48778 0.226,-10.52439 0.81867,-10.99963 1.83172,-1.46881 13.2554,-3.53266 19.63735,-3.54776 5.63838,-0.0133 6.8842,0.19907 9.94196,1.69509 3.43959,1.68284 6.14706,4.73314 7.23016,8.1457 0.67827,2.13703 0.55945,7.34279 -0.21402,9.37719 -1.02944,2.70762 -4.7476,6.53745 -7.6087,7.83722 -4.02893,1.83031 -14.4858,1.5964 -23.09228,-0.51654 z"
     id="path5396"
     inkscape:connector-curvature="0" />
  <path
     style="fill:#3a3ae5;fill-opacity:0.18926553;stroke:#3a3ae4;stroke-width:0.22726448;stroke-miterlimit:4;stroke-dasharray:none;stroke-opacity:0.18823529"
     d="m 269.1193,258.41922 c -4.95297,-2.09442 -9.17275,-8.10021 -9.1787,-13.06352 -0.007,-5.75815 3.6163,-11.39413 8.60923,-13.3919 4.05128,-1.62101 13.82946,-1.47117 21.57246,0.33057 9.18021,2.13616 8.44977,1.09628 8.44977,12.0294 0,11.23512 -0.12179,11.46839 -6.87688,13.17117 -5.38144,1.35652 -20.12614,1.96019 -22.57588,0.92428 z"
     id="path5398"
     inkscape:connector-curvature="0" />
</svg>
