<?xml version="1.0" encoding="UTF-8" standalone="no"?>
<!-- Created with Inkscape (http://www.inkscape.org/) -->

<svg
   xmlns:dc="http://purl.org/dc/elements/1.1/"
   xmlns:cc="http://creativecommons.org/ns#"
   xmlns:rdf="http://www.w3.org/1999/02/22-rdf-syntax-ns#"
   xmlns:svg="http://www.w3.org/2000/svg"
   xmlns="http://www.w3.org/2000/svg"
   xmlns:sodipodi="http://sodipodi.sourceforge.net/DTD/sodipodi-0.dtd"
   xmlns:inkscape="http://www.inkscape.org/namespaces/inkscape"
   version="1.1"
   id="svg3732"
   width="546.1333"
   height="546.1333"
   viewBox="0 0 546.1333 546.1333"
   sodipodi:docname="pagos.svg"
   inkscape:version="0.92.2 (5c3e80d, 2017-08-06)">
  <metadata
     id="metadata3738">
    <rdf:RDF>
      <cc:Work
         rdf:about="">
        <dc:format>image/svg+xml</dc:format>
        <dc:type
           rdf:resource="http://purl.org/dc/dcmitype/StillImage" />
        <dc:title></dc:title>
      </cc:Work>
    </rdf:RDF>
  </metadata>
  <defs
     id="defs3736" />
  <sodipodi:namedview
     pagecolor="#ffffff"
     bordercolor="#666666"
     borderopacity="1"
     objecttolerance="10"
     gridtolerance="10"
     guidetolerance="10"
     inkscape:pageopacity="0"
     inkscape:pageshadow="2"
     inkscape:window-width="3200"
     inkscape:window-height="1675"
     id="namedview3734"
     showgrid="false"
     inkscape:zoom="2"
     inkscape:cx="411.31221"
     inkscape:cy="251.54326"
     inkscape:window-x="-13"
     inkscape:window-y="-13"
     inkscape:window-maximized="1"
     inkscape:current-layer="svg3732" />
  <flowRoot
     xml:space="preserve"
     id="flowRoot3760"
     style="font-style:normal;font-weight:normal;font-size:40px;line-height:1.25;font-family:sans-serif;letter-spacing:0px;word-spacing:0px;fill:#000000;fill-opacity:1;stroke:none"><flowRegion
       id="flowRegion3762"><rect
         id="rect3764"
         width="252.81343"
         height="314.99408"
         x="1262.4308"
         y="-73.218697" /></flowRegion><flowPara
       id="flowPara3766" /></flowRoot>  <flowRoot
     xml:space="preserve"
     id="flowRoot3776"
     style="font-style:normal;font-variant:normal;font-weight:normal;font-stretch:normal;font-size:40px;line-height:1.25;font-family:Calibri;-inkscape-font-specification:Calibri;letter-spacing:0px;word-spacing:0px;fill:#000000;fill-opacity:1;stroke:none;"><flowRegion
       id="flowRegion3778"
       style="-inkscape-font-specification:Calibri;font-family:Calibri;font-weight:normal;font-style:normal;font-stretch:normal;font-variant:normal;"><rect
         id="rect3780"
         width="23.430546"
         height="43.389824"
         x="1235.1638"
         y="247.90054"
         style="font-style:normal;font-variant:normal;font-weight:normal;font-stretch:normal;font-family:Calibri;-inkscape-font-specification:Calibri" /></flowRegion><flowPara
       id="flowPara3782">₲</flowPara></flowRoot>  <path
     inkscape:connector-curvature="0"
     id="path3756"
     d="m 382.31294,544.81367 c -24.95345,-3.68989 -44.4945,-11.7193 -64.35034,-26.44149 -16.63559,-12.33455 -30.87082,-29.0327 -41.4359,-48.60497 l -5.18207,-9.6 -6.5922,-0.31609 c -6.20639,-0.29759 -6.70393,-0.14151 -8.50118,2.66667 -1.04993,1.64051 -2.63556,3.57269 -3.52364,4.29373 -1.2583,1.02165 -26.09781,1.25706 -112.54799,1.06666 l -110.933327,-0.24431 -6.4,-2.98907 C 10.760263,459.00009 3.6884226,449.98123 1.4326026,437.33549 -0.48265739,426.59888 -0.79729739,43.836149 1.0990526,31.571559 2.9105426,19.855729 7.376323,12.540879 16.585753,6.2046192 c 9.68671,-6.66463002 -2.75305,-6.30526002 217.779237,-6.29139002 211.62191,0.0133 206.23571,-0.1004 215.21141,4.54352002 4.8362,2.50214 12.0432,10.1324198 14.9054,15.7805598 1.3844,2.7321 3.0403,8.03401 3.6796,11.78202 0.8005,4.69313 1.0673,40.30799 0.857,114.403391 l -0.3055,107.58882 -4,3.45755 c -3.6419,3.148 -4,3.94185 -4,8.86709 0,4.57354 0.4344,5.75119 2.8106,7.62029 1.5457,1.21591 3.3917,2.21075 4.1021,2.21075 3.1467,0 25.3706,16.14479 34.77,25.25906 32.7212,31.72854 46.4742,70.53425 42.0825,118.74093 -1.5232,16.71959 -4.1878,26.95058 -10.9733,42.13333 -17.0392,38.12544 -51.255,67.69627 -91.4585,79.04266 -14.6899,4.14583 -43.7488,5.83413 -59.73336,3.47047 z"
     style="fill:#fbe26d;stroke-width:1.0666666" />
  <path
     sodipodi:nodetypes="sssscssccsssscssscsccscssssscssssscc"
     inkscape:connector-curvature="0"
     id="path3754"
     d="m 382.31294,544.42814 c -12.85041,-1.80646 -18.22902,-3.23982 -31.37613,-8.36146 -19.85748,-7.73576 -40.20131,-21.96139 -54.06779,-37.80744 -8.99031,-10.27375 -13.68514,-17.11018 -20.33579,-29.6121 l -4.79478,-9.01326 h -7.35203 c -7.02881,0 -7.42215,0.13559 -8.94701,3.08435 -0.90273,1.74569 -3.06698,3.5975 -4.98656,4.26666 -4.55563,1.58811 -207.565167,1.64889 -217.325917,0.0651 -17.29492,-2.80636 -29.6149504,-15.35145 -32.1252304,-32.71211 -1.43545999,-9.92744 -1.42007999,-390.786041 0.0162,-400.722191 0.58446,-4.04336 1.981,-9.42762 3.10343,-11.96505 C 7.226843,14.630119 14.964803,7.0302892 22.596383,3.5053892 l 6.64993,-3.07149 201.599987,-0.32597 c 211.18192,-0.34146002 208.25242,-0.39884002 217.43492,4.25906 6.0597,3.07389 13.2831,10.8251398 16.5169,17.7239798 l 2.8482,6.07627 0.3002,111.466651 c 0.1652,61.30667 0.038,112.53794 -0.2821,113.84726 -0.3203,1.30934 -2.0368,3.13273 -3.8145,4.05198 -3.1676,1.63803 -3.2258,1.81401 -2.9179,8.81663 l 0.3143,7.14524 8,4.29339 c 22.2386,11.93491 38.9356,27.11503 52.7731,47.97883 17.6816,26.65993 25.0182,55.58025 22.6991,89.47812 -3.538,51.71549 -36.8799,98.39141 -85.1484,119.20112 -23.7845,10.25406 -50.6385,13.72362 -77.25716,9.98168 z M 471.1254,333.80158 c -0.4514,-2.39467 -15.0554,-13.18021 -23.5999,-17.42914 -16.7289,-8.31888 -29.6027,-10.90908 -49.7459,-10.00889 -22.19624,0.99193 -39.64965,7.6477 -57.04039,21.75206 -14.71356,11.93308 -28.05862,32.80822 -32.59367,50.98494 -7.70314,30.87455 -0.14587,64.07416 19.97083,87.73332 2.61884,3.08 5.07895,5.6 5.46692,5.6 79.18411,-81.75412 50.73782,-53.24177 137.54211,-138.63229 z"
     style="fill:#1fd6dc;stroke-width:1.0666666" />
  <path
     sodipodi:nodetypes="sssscssccsssscssscsccscssssscsssssccssscccccccccsccscccssssccscccsccscccss"
     inkscape:connector-curvature="0"
     id="path3752"
     d="m 382.31294,544.42814 c -12.85041,-1.80646 -18.22902,-3.23982 -31.37613,-8.36146 -19.85748,-7.73576 -40.20131,-21.96139 -54.06779,-37.80744 -8.99031,-10.27375 -13.68514,-17.11018 -20.33579,-29.6121 l -4.79478,-9.01326 h -7.35203 c -7.02881,0 -7.42215,0.13559 -8.94701,3.08435 -0.90273,1.74569 -3.06698,3.5975 -4.98656,4.26666 -4.55563,1.58811 -207.565167,1.64889 -217.325917,0.0651 -17.29492,-2.80636 -29.6149504,-15.35145 -32.1252304,-32.71211 -1.43545999,-9.92744 -1.42007999,-390.786041 0.0162,-400.722191 0.58446,-4.04336 1.981,-9.42762 3.10343,-11.96505 C 7.226843,14.630119 14.964803,7.0302892 22.596383,3.5053892 l 6.64993,-3.07149 201.599987,-0.32597 c 211.18192,-0.34146002 208.25242,-0.39884002 217.43492,4.25906 6.0597,3.07389 13.2831,10.8251398 16.5169,17.7239798 l 2.8482,6.07627 0.3002,111.466651 c 0.1652,61.30667 0.038,112.53794 -0.2821,113.84726 -0.3203,1.30934 -2.0368,3.13273 -3.8145,4.05198 -3.1676,1.63803 -3.2258,1.81401 -2.9179,8.81663 l 0.3143,7.14524 8,4.29339 c 22.2386,11.93491 38.9356,27.11503 52.7731,47.97883 17.6816,26.65993 25.0182,55.58025 22.6991,89.47812 -3.538,51.71549 -36.8799,98.39141 -85.1484,119.20112 -23.7845,10.25406 -50.6385,13.72362 -77.25716,9.98168 z M 471.1254,333.80158 c -0.4514,-2.39467 -15.0554,-13.18021 -23.5999,-17.42914 -16.7289,-8.31888 -29.6027,-10.90908 -49.7459,-10.00889 -22.19624,0.99193 -39.64965,7.6477 -57.04039,21.75206 -14.71356,11.93308 -28.05862,32.80822 -32.59367,50.98494 -7.70314,30.87455 -0.14587,64.07416 19.97083,87.73332 2.61884,3.08 5.07895,5.6 5.46692,5.6 58.89111,-64.65956 83.49411,-85.06101 137.54211,-138.63229 z m -211.55369,57.8323 c 2.3568,-20.51587 7.37417,-37.6853 15.62348,-53.46347 17.5639,-33.59387 46.26802,-58.30267 82.47798,-70.99789 l 9.70643,-3.40308 V 163.035 62.300569 L 215.11295,62.030259 62.846293,61.759949 V 229.76359 397.76721 h 98.010427 98.01041 z m -94.88126,-23.76203 c -7.17186,-0.99825 -13.99675,-4.63173 -16.55625,-8.81433 -2.0547,-3.35769 -2.08986,-5.80082 -1.82482,-126.83121 l 0.27024,-123.40758 3.70306,-3.82042 c 2.03667,-2.10123 5.39667,-4.32122 7.46667,-4.9333 2.45942,-0.72724 20.58158,-0.97934 52.29693,-0.7275 46.00537,0.36531 48.97781,0.50731 57.06666,2.7262 35.08385,9.62404 53.4913,34.4064 55.63565,74.90352 1.58365,29.90786 -5.78693,53.13094 -22.01248,69.35649 -17.71236,17.71235 -38.42332,23.38194 -85.57722,23.42661 l -17.82073,0.0169 -0.3126,42.4 c -0.29647,40.21063 -0.42334,42.59277 -2.45702,46.13333 -4.10012,7.1382 -17.2028,11.33557 -29.87809,9.5713 z m 87.48916,-142.69431 c 13.44158,-6.1821 19.76484,-18.71421 19.71482,-39.07289 -0.0386,-15.70065 -4.48308,-28.0588 -12.45402,-34.62913 -7.2959,-6.01389 -11.23011,-6.77241 -37.92746,-7.31236 l -24.26667,-0.49079 v 42.33336 42.33336 l 24.8,-0.35431 c 23.21095,-0.33161 25.14173,-0.51148 30.13333,-2.80724 z"
     style="fill:#fbac15;stroke-width:1.0666666" />
  <path
     sodipodi:nodetypes="sssscssccsssscssscsccscssssscsssssscccsssssscssccssssssssscccccccccsccscccssssccscccsccscccss"
     inkscape:connector-curvature="0"
     id="path3750"
     d="m 382.31294,544.42814 c -12.85041,-1.80646 -18.22902,-3.23982 -31.37613,-8.36146 -19.85748,-7.73576 -40.20131,-21.96139 -54.06779,-37.80744 -8.99031,-10.27375 -13.68514,-17.11018 -20.33579,-29.6121 l -4.79478,-9.01326 h -7.35203 c -7.02881,0 -7.42215,0.13559 -8.94701,3.08435 -0.90273,1.74569 -3.06698,3.5975 -4.98656,4.26666 -4.55563,1.58811 -207.565167,1.64889 -217.325917,0.0651 -17.29492,-2.80636 -29.6149504,-15.35145 -32.1252304,-32.71211 -1.43545999,-9.92744 -1.42007999,-390.786041 0.0162,-400.722191 0.58446,-4.04336 1.981,-9.42762 3.10343,-11.96505 C 7.226843,14.630119 14.964803,7.0302892 22.596383,3.5053892 l 6.64993,-3.07149 201.599987,-0.32597 c 211.18192,-0.34146002 208.25242,-0.39884002 217.43492,4.25906 6.0597,3.07389 13.2831,10.8251398 16.5169,17.7239798 l 2.8482,6.07627 0.3002,111.466651 c 0.1652,61.30667 0.038,112.53794 -0.2821,113.84726 -0.3203,1.30934 -2.0368,3.13273 -3.8145,4.05198 -3.1676,1.63803 -3.2258,1.81401 -2.9179,8.81663 l 0.3143,7.14524 8,4.29339 c 22.2386,11.93491 38.9356,27.11503 52.7731,47.97883 17.6816,26.65993 25.0182,55.58025 22.6991,89.47812 -3.538,51.71549 -36.8799,98.39141 -85.1484,119.20112 -23.7845,10.25406 -50.6385,13.72362 -77.25716,9.98168 z m 35.39366,-17.07607 c 14.8058,-1.22343 35.0336,-7.94544 48.7696,-16.20686 27.0579,-16.27381 48.0316,-43.38943 56.4889,-73.031 18.2313,-63.8981 -17.1076,-131.20392 -79.9418,-152.25528 -53.7624,-18.01208 -112.78793,2.29567 -143.87446,49.5001 -25.75974,39.11575 -27.36262,89.84587 -4.11198,130.14151 20.32354,35.22272 56.7673,58.70416 96.71124,62.31295 5.3706,0.48522 11.6848,0.72232 14.0315,0.5269 2.3467,-0.19544 7.7138,-0.64017 11.927,-0.98832 z m -31.127,-8.02898 c -36.87081,-5.72577 -68.3235,-27.89028 -86.21602,-60.75588 -15.11705,-27.76751 -17.76041,-62.97947 -7.01622,-93.46259 5.99233,-17.00127 13.1248,-28.41884 26.35358,-42.18651 29.43253,-30.63148 72.20256,-42.58275 113.81196,-31.80255 10.8487,2.81067 29.9549,12.09709 38.9507,18.93157 24.0657,18.28385 39.8463,43.49093 45.4005,72.5205 1.9847,10.37304 1.9355,31.9498 -0.097,42.66586 -5.8588,30.88517 -23.7109,57.72534 -50.4566,75.86012 -11.3233,7.67773 -25.6603,13.68293 -40.1806,16.83006 -9.1108,1.97468 -31.8027,2.7578 -40.54996,1.39942 z m 36.8,-19.87156 c 35.3477,-6.93944 65.7339,-35.95863 74.6424,-71.28432 15.5661,-61.72507 -30.7785,-122.13016 -93.8424,-122.31345 -22.71192,-0.066 -41.98073,6.21958 -59.98682,19.56805 -45.68548,33.86805 -52.32846,101.40126 -14.12211,143.56688 23.88469,26.35984 57.80319,37.4333 93.30893,30.46284 z M 259.57171,391.63388 c 2.3568,-20.51587 7.37417,-37.6853 15.62348,-53.46347 17.5639,-33.59387 46.26802,-58.30267 82.47798,-70.99789 l 9.70643,-3.40308 V 163.035 62.300569 L 215.11295,62.030259 62.846293,61.759949 V 229.76359 397.76721 h 98.010427 98.01041 z m -94.88126,-23.76203 c -7.17186,-0.99825 -13.99675,-4.63173 -16.55625,-8.81433 -2.0547,-3.35769 -2.08986,-5.80082 -1.82482,-126.83121 l 0.27024,-123.40758 3.70306,-3.82042 c 2.03667,-2.10123 5.39667,-4.32122 7.46667,-4.9333 2.45942,-0.72724 20.58158,-0.97934 52.29693,-0.7275 46.00537,0.36531 48.97781,0.50731 57.06666,2.7262 35.08385,9.62404 53.4913,34.4064 55.63565,74.90352 1.58365,29.90786 -5.78693,53.13094 -22.01248,69.35649 -17.71236,17.71235 -38.42332,23.38194 -85.57722,23.42661 l -17.82073,0.0169 -0.3126,42.4 c -0.29647,40.21063 -0.42334,42.59277 -2.45702,46.13333 -4.10012,7.1382 -17.2028,11.33557 -29.87809,9.5713 z m 87.48916,-142.69431 c 13.44158,-6.1821 19.76484,-18.71421 19.71482,-39.07289 -0.0386,-15.70065 -4.48308,-28.0588 -12.45402,-34.62913 -7.2959,-6.01389 -11.23011,-6.77241 -37.92746,-7.31236 l -24.26667,-0.49079 v 42.33336 42.33336 l 24.8,-0.35431 c 23.21095,-0.33161 25.14173,-0.51148 30.13333,-2.80724 z"
     style="fill:#10b8c0;stroke-width:1.0666666" />
  <path
     sodipodi:nodetypes="sssscssccsssscssscsccscsssscsssssscccsssssscssccsssssssssscsccscccsccsccscscccscscscssscscccccsscccscsc"
     inkscape:connector-curvature="0"
     id="path3748"
     d="m 382.31294,544.42814 c -12.85041,-1.80646 -18.22902,-3.23982 -31.37613,-8.36146 -19.85748,-7.73576 -40.20131,-21.96139 -54.06779,-37.80744 -8.99031,-10.27375 -13.68514,-17.11018 -20.33579,-29.6121 l -4.79478,-9.01326 h -7.35203 c -7.02881,0 -7.42215,0.13559 -8.94701,3.08435 -0.90273,1.74569 -3.06698,3.5975 -4.98656,4.26666 -4.55563,1.58811 -207.565167,1.64889 -217.325917,0.0651 -17.29492,-2.80636 -29.6149504,-15.35145 -32.1252304,-32.71211 -1.43545999,-9.92744 -1.42007999,-390.786041 0.0162,-400.722191 0.58446,-4.04336 1.981,-9.42762 3.10343,-11.96505 C 7.226843,14.630119 14.964803,7.0302892 22.596383,3.5053892 l 6.64993,-3.07149 201.599987,-0.32597 c 211.18192,-0.34146002 208.25242,-0.39884002 217.43492,4.25906 6.0597,3.07389 13.2831,10.8251398 16.5169,17.7239798 l 2.8482,6.07627 0.2856,112.781001 c 0.2836,111.95811 0.27,112.79477 -1.8666,114.66666 -1.1838,1.03711 -3.1124,2.72565 -4.2857,3.75232 -2.3739,2.07721 -2.9402,9.03258 -1.0265,12.60837 0.6088,1.13748 4.0799,3.56892 7.7136,5.4032 20.9912,10.59635 39.6988,27.49993 53.5527,48.38843 17.6816,26.65993 25.0182,55.58025 22.6991,89.47812 -3.538,51.71549 -36.8799,98.39141 -85.1484,119.20112 -23.7845,10.25406 -50.6385,13.72362 -77.25716,9.98168 z m 35.39366,-17.07607 c 14.8058,-1.22343 35.0336,-7.94544 48.7696,-16.20686 27.0579,-16.27381 48.0316,-43.38943 56.4889,-73.031 18.2313,-63.8981 -17.1076,-131.20392 -79.9418,-152.25528 -53.7624,-18.01208 -112.78793,2.29567 -143.87446,49.5001 -25.75974,39.11575 -27.36262,89.84587 -4.11198,130.14151 20.32354,35.22272 56.7673,58.70416 96.71124,62.31295 5.3706,0.48522 11.6848,0.72232 14.0315,0.5269 2.3467,-0.19544 7.7138,-0.64017 11.927,-0.98832 z m -31.127,-8.02898 c -36.87081,-5.72577 -68.3235,-27.89028 -86.21602,-60.75588 -15.11705,-27.76751 -17.76041,-62.97947 -7.01622,-93.46259 5.99233,-17.00127 13.1248,-28.41884 26.35358,-42.18651 29.43253,-30.63148 72.20256,-42.58275 113.81196,-31.80255 10.8487,2.81067 29.9549,12.09709 38.9507,18.93157 24.0657,18.28385 39.8463,43.49093 45.4005,72.5205 1.9847,10.37304 1.9355,31.9498 -0.097,42.66586 -5.8588,30.88517 -23.7109,57.72534 -50.4566,75.86012 -11.3233,7.67773 -25.6603,13.68293 -40.1806,16.83006 -9.1108,1.97468 -31.8027,2.7578 -40.54996,1.39942 z m 36.8,-19.87156 c 35.3477,-6.93944 65.7339,-35.95863 74.6424,-71.28432 15.5661,-61.72507 -30.7785,-122.13016 -93.8424,-122.31345 -22.71192,-0.066 -41.98073,6.21958 -59.98682,19.56805 -45.68548,33.86805 -52.32846,101.40126 -14.12211,143.56688 23.88469,26.35984 57.80319,37.4333 93.30893,30.46284 z M 260.54322,401.42284 c 1.12774,-23.51479 6.12079,-43.52834 15.41527,-61.78896 17.46529,-34.31353 46.97592,-59.42884 84.48778,-71.90413 13.58034,-4.51641 25.70172,-6.49019 41.66523,-6.78455 l 13.2681,-0.24465 0.3056,-9.78243 c 0.2758,-8.83102 0.108,-9.84515 -1.726,-10.42723 -1.1174,-0.35464 -2.9349,-1.64278 -4.0389,-2.86255 -1.9214,-2.12278 -2.0302,-5.94712 -2.5407,-89.30609 L 406.8463,61.233899 H 234.04628 61.246293 l -0.32017,163.733321 c -0.1761,90.05333 -0.0137,167.68518 0.36091,172.51521 l 0.68108,8.78189 87.794087,0.28478 c 86.08742,0.27924 87.8401,0.32625 90.1615,2.41811 1.30207,1.17333 2.78043,3.21333 3.28526,4.53333 0.83706,2.18876 1.60977,2.4 8.77889,2.4 h 7.86103 z m -99.5705,-35.52487 c -5.61532,-1.83563 -9.76333,-4.62545 -11.76961,-7.91588 -2.03274,-3.33378 -2.08228,-6.28614 -2.08617,-124.32033 -0.004,-134.10122 -0.49601,-125.10656 7.12095,-130.29453 l 3.91519,-2.66667 42.7466,-0.33895 c 45.12001,-0.35777 57.15261,0.37953 69.91171,4.28382 23.69723,7.25139 40.48202,24.37323 46.89483,47.83654 4.71365,17.24638 4.74745,44.49588 0.0763,61.52232 -3.46737,12.63869 -8.9355,22.07238 -18.11449,31.25137 -9.66323,9.66322 -19.13719,14.93944 -33.90049,18.87977 -9.62209,2.56813 -12.58988,2.81896 -40.25461,3.40217 l -29.86666,0.62962 -0.53333,43.78191 c -0.60024,49.27401 -0.29016,47.44982 -8.8156,51.8621 -4.88845,2.52996 -20.12753,3.78566 -25.32464,2.08674 z m 92.53131,-139.72493 c 3.0751,-1.39014 7.25431,-4.3685 9.28713,-6.61861 8.18255,-9.05709 10.69467,-18.35508 9.95335,-36.83971 -0.80769,-20.13917 -5.64616,-29.39773 -18.73164,-35.8436 l -7.11311,-3.50389 h -25.62674 -25.62674 l -0.27943,41.59745 c -0.1537,22.87859 -0.0369,42.22952 0.25956,43.00206 0.43026,1.12125 5.75873,1.33695 26.41277,1.06922 24.55519,-0.31832 26.15869,-0.46421 31.46485,-2.86292 z"
     style="fill:#b06813;stroke-width:1.0666666" />
  <path
     sodipodi:nodetypes="sssscssccsssscssscsccscsssscssssssscccsssscsscscccsccssccsccsssscsccscccsccsccscscccscscscssscscccccsscccscsc"
     inkscape:connector-curvature="0"
     id="path3746"
     d="m 382.31294,544.42814 c -12.85041,-1.80646 -18.22902,-3.23982 -31.37613,-8.36146 -19.85748,-7.73576 -40.20131,-21.96139 -54.06779,-37.80744 -8.99031,-10.27375 -13.68514,-17.11018 -20.33579,-29.6121 l -4.79478,-9.01326 h -7.35203 c -7.02881,0 -7.42215,0.13559 -8.94701,3.08435 -0.90273,1.74569 -3.06698,3.5975 -4.98656,4.26666 -4.55563,1.58811 -207.565167,1.64889 -217.325917,0.0651 -17.29492,-2.80636 -29.6149504,-15.35145 -32.1252304,-32.71211 -1.43545999,-9.92744 -1.42007999,-390.786041 0.0162,-400.722191 0.58446,-4.04336 1.981,-9.42762 3.10343,-11.96505 C 7.226843,14.630119 14.964803,7.0302892 22.596383,3.5053892 l 6.64993,-3.07149 201.599987,-0.32597 c 211.18192,-0.34146002 208.25242,-0.39884002 217.43492,4.25906 6.0597,3.07389 13.2831,10.8251398 16.5169,17.7239798 l 2.8482,6.07627 0.2856,112.781001 c 0.2836,111.95811 0.27,112.79477 -1.8666,114.66666 -1.1838,1.03711 -3.1124,2.72565 -4.2857,3.75232 -2.3739,2.07721 -2.9402,9.03258 -1.0265,12.60837 0.6088,1.13748 4.0799,3.56892 7.7136,5.4032 20.9912,10.59635 39.6988,27.49993 53.5527,48.38843 17.6816,26.65993 25.0182,55.58025 22.6991,89.47812 -3.538,51.71549 -36.8799,98.39141 -85.1484,119.20112 -23.7845,10.25406 -50.6385,13.72362 -77.25716,9.98168 z m 41.06666,-15.51129 c 31.2291,-4.9587 61.6692,-23.44516 81.1289,-49.27006 7.8454,-10.41161 17.1982,-29.25455 20.7508,-41.80607 16.0305,-56.63651 -10.9475,-119.01724 -63.1266,-145.9667 -19.0581,-9.84311 -32.8363,-13.47812 -54.2198,-14.3044 -22.72072,-0.87795 -41.80809,3.17581 -61.33329,13.02592 -51.26572,25.86264 -78.76486,82.06748 -67.57014,138.105 10.15516,50.83382 52.1775,91.58841 103.30347,100.18696 7.71336,1.29726 32.96786,1.31532 41.06666,0.0293 z M 386.67,517.19483 c -25.20311,-3.9742 -51.15228,-17.64265 -67.33045,-35.46563 -18.76454,-20.6723 -28.93159,-45.14801 -30.07111,-72.39184 -1.12189,-26.82251 4.78911,-48.0187 19.66975,-70.53353 10.47166,-15.84391 31.02516,-32.75102 48.82042,-40.1592 16.09985,-6.70238 26.93329,-8.85817 44.82099,-8.91906 17.6797,-0.0602 27.1366,1.64237 42.8879,7.72129 35.6987,13.77721 62.8183,46.6405 70.2982,85.18673 2.1604,11.13325 2.1325,30.51219 -0.061,42.19751 -8.2042,43.70985 -41.0992,78.74356 -84.3253,89.80799 -11.9942,3.07011 -33.6112,4.30581 -44.70958,2.55574 z m 41.9712,-17.03044 c 36.7021,-10.39749 64.5033,-39.8242 72.051,-76.26385 2.2842,-11.02769 2.2916,-29.47609 0.016,-40.43514 -6.2396,-30.05245 -26.0772,-55.24024 -54.2483,-68.87922 -28.5749,-13.83454 -58.2247,-13.846 -86.54707,-0.0335 -20.26342,9.88227 -35.9462,25.38802 -45.86556,45.34784 -7.78642,15.66789 -9.47831,23.58623 -9.45839,44.26666 0.0155,16.02635 0.27296,18.43896 2.88019,26.98303 11.31035,37.06495 40.35034,63.38004 78.04376,70.72069 10.71007,2.08575 32.83167,1.21042 43.12827,-1.70654 z M 260.54322,401.42284 c 1.12774,-23.51479 6.12079,-43.52834 15.41527,-61.78896 17.46529,-34.31353 46.97592,-59.42884 84.48778,-71.90413 13.58034,-4.51641 25.70172,-6.49019 41.66523,-6.78455 l 13.2681,-0.24465 0.3056,-9.78243 c 0.2758,-8.83102 0.108,-9.84515 -1.726,-10.42723 -1.1174,-0.35464 -2.9349,-1.64278 -4.0389,-2.86255 -1.9214,-2.12278 -2.0302,-5.94712 -2.5407,-89.30609 L 406.8463,61.233899 H 234.04628 61.246293 l -0.32017,163.733321 c -0.1761,90.05333 -0.0137,167.68518 0.36091,172.51521 l 0.68108,8.78189 87.794087,0.28478 c 86.08742,0.27924 87.8401,0.32625 90.1615,2.41811 1.30207,1.17333 2.78043,3.21333 3.28526,4.53333 0.83706,2.18876 1.60977,2.4 8.77889,2.4 h 7.86103 z m -99.5705,-35.52487 c -5.61532,-1.83563 -9.76333,-4.62545 -11.76961,-7.91588 -2.03274,-3.33378 -2.08228,-6.28614 -2.08617,-124.32033 -0.004,-134.10122 -0.49601,-125.10656 7.12095,-130.29453 l 3.91519,-2.66667 42.7466,-0.33895 c 45.12001,-0.35777 57.15261,0.37953 69.91171,4.28382 23.69723,7.25139 40.48202,24.37323 46.89483,47.83654 4.71365,17.24638 4.74745,44.49588 0.0763,61.52232 -3.46737,12.63869 -8.9355,22.07238 -18.11449,31.25137 -9.66323,9.66322 -19.13719,14.93944 -33.90049,18.87977 -9.62209,2.56813 -12.58988,2.81896 -40.25461,3.40217 l -29.86666,0.62962 -0.53333,43.78191 c -0.60024,49.27401 -0.29016,47.44982 -8.8156,51.8621 -4.88845,2.52996 -20.12753,3.78566 -25.32464,2.08674 z m 92.53131,-139.72493 c 3.0751,-1.39014 7.25431,-4.3685 9.28713,-6.61861 8.18255,-9.05709 10.69467,-18.35508 9.95335,-36.83971 -0.80769,-20.13917 -5.64616,-29.39773 -18.73164,-35.8436 l -7.11311,-3.50389 h -25.62674 -25.62674 l -0.27943,41.59745 c -0.1537,22.87859 -0.0369,42.22952 0.25956,43.00206 0.43026,1.12125 5.75873,1.33695 26.41277,1.06922 24.55519,-0.31832 26.15869,-0.46421 31.46485,-2.86292 z"
     style="fill:#245267;stroke-width:1.0666666" />
  <path
     sodipodi:nodetypes="cscsssssssccscccssccccssssssscccsssscsscsccsssssssssscccsssscsccscssscscsscscsccccccccsscssscccscccscssscsccsscscsccsssssscscscscscsccc"
     inkscape:connector-curvature="0"
     id="path3744"
     d="m 392.7129,545.24273 c -4.2533,-0.20294 -7.7333,-0.76187 -7.7333,-1.24207 0,-0.48019 -2.574,-1.17559 -5.72002,-1.54535 -8.17957,-0.96134 -22.89841,-5.41954 -33.03179,-10.00502 -30.15741,-13.64661 -51.83462,-34.08703 -68.80731,-64.88152 -8.92531,-16.19371 -10.04138,-18.97979 -12.5791,-31.40156 -3.03733,-14.86732 -3.4562,-39.56014 -0.93478,-55.10635 9.83017,-60.60965 59.82597,-109.17909 120.58394,-117.14376 15.38886,-2.01731 35.91776,-1.94738 46.35576,0.15789 10.5292,2.12369 27.7333,7.65981 27.7333,8.92435 0,0.54923 2.52,2.26087 5.6,3.80363 35.0537,17.55834 60.6808,46.70329 72.6605,82.63492 2.8536,8.55905 6.0062,22.74221 6.0062,27.0214 0,1.45678 0.48,2.94534 1.0666,3.30792 1.3542,0.83694 1.422,25.49742 0.077,28.01448 -0.5443,1.01871 -1.4943,5.24384 -2.111,9.38918 -4.2201,28.36665 -20.7799,59.30235 -42.5071,79.40877 -19.6335,18.16882 -47.9495,32.38161 -71.2387,35.75709 -2.9077,0.42144 -5.7668,1.12077 -6.3534,1.55407 -1.3671,1.00968 -19.0258,1.83102 -29.0667,1.35193 z m 30.6667,-16.32588 c 31.2291,-4.9587 61.6692,-23.44516 81.1289,-49.27006 7.8454,-10.41161 17.1982,-29.25455 20.7508,-41.80607 16.0305,-56.63651 -10.9475,-119.01724 -63.1266,-145.9667 -19.0581,-9.84311 -32.8363,-13.47812 -54.2198,-14.3044 -22.72072,-0.87795 -41.80809,3.17581 -61.33329,13.02592 -51.26572,25.86264 -78.76486,82.06748 -67.57014,138.105 10.15516,50.83382 52.1775,91.58841 103.30347,100.18696 7.71336,1.29726 32.96786,1.31532 41.06666,0.0293 z M 386.67,517.19483 c -25.20311,-3.9742 -51.15228,-17.64265 -67.33045,-35.46563 -18.76454,-20.6723 -28.93159,-45.14801 -30.07111,-72.39184 -1.12189,-26.82251 4.78911,-48.0187 19.66975,-70.53353 10.47166,-15.84391 31.02516,-32.75102 48.82042,-40.1592 16.09985,-6.70238 26.93329,-8.85817 44.82099,-8.91906 17.6797,-0.0602 27.1366,1.64237 42.8879,7.72129 35.6987,13.77721 62.8183,46.6405 70.2982,85.18673 2.1604,11.13325 2.1325,30.51219 -0.061,42.19751 -8.2042,43.70985 -41.0992,78.74356 -84.3253,89.80799 -11.9942,3.07011 -33.6112,4.30581 -44.70958,2.55574 z m 41.9712,-17.03044 c 36.7021,-10.39749 64.5033,-39.8242 72.051,-76.26385 3.665,-17.6943 1.7654,-40.05796 -4.8081,-56.60601 -7.0148,-17.6587 -21.3905,-35.81932 -36.5863,-46.2189 -7.303,-4.99796 -21.1777,-11.29989 -31.1376,-14.14273 -7.2114,-2.05838 -11.0433,-2.43015 -25.0473,-2.43015 -19.28967,0 -27.24795,1.74723 -43.19996,9.48449 -37.91261,18.38888 -60.92728,59.45333 -56.12796,100.14753 5.22499,44.30337 37.69556,79.16101 81.72796,87.73616 10.71006,2.08575 32.83166,1.21042 43.12826,-1.70654 z M 28.179623,464.5418 c -6.682,-2.11325 -10.4251,-4.38557 -15.42425,-9.36359 -4.57437,-4.55505 -9.6117704,-13.52129 -9.6319904,-17.14433 -0.006,-1.02667 -0.49042,-1.86667 -1.07709,-1.86667 -1.38950999,0 -1.48345999,-402.434781 -0.0946,-405.081121 0.53466,-1.0187 1.76921,-4.1187 2.74345,-6.88888 C 7.274763,16.862219 14.914323,8.9336392 23.843943,4.3239692 l 7.53566,-3.89007 H 234.8852 c 141.10186,0 203.739,0.34388 204.2667,1.12143 0.4186,0.61679 3.0555,1.98199 5.8597,3.03379 10.0168,3.75697 18.7011,15.0066098 21.0188,27.2276498 1.1743,6.19247 1.5544,216.346731 0.3991,220.659841 -0.6978,2.60467 -5.3376,5.55728 -8.733,5.55728 -5.1266,0 -4.9489,3.69083 -5.5169,-114.56344 -0.5331,-110.979661 -0.5345,-111.038731 -2.8198,-115.303221 -2.615,-4.87968 -4.7044,-6.91838 -9.9802,-9.73803 -3.6096,-1.92915 -10.4403,-1.9953 -206.04137,-1.9953 H 31.030193 l -4.62528,3.24737 c -2.54391,1.78605 -5.82529,5.38605 -7.29195,8 l -2.66667,4.75263 -0.2833,197.242441 c -0.30686,213.64063 -0.51871,205.08562 5.27238,212.91849 1.29586,1.75273 4.75768,4.38355 7.69295,5.84625 l 5.33684,2.65946 H 142.4629 250.46065 l 2.87329,2.4715 c 2.70796,2.3293 2.79852,2.69797 1.57404,6.40818 -0.71457,2.16519 -2.18922,4.41301 -3.277,4.99518 -3.17641,1.69997 -218.023317,1.28306 -223.451357,-0.4336 z m 26.61379,-42.67496 c -4.29371,-1.87022 -8.7783,-7.32026 -9.54322,-11.5977 -0.33787,-1.88939 -0.47697,-82.72011 -0.30911,-179.62381 l 0.30521,-176.188551 2.24483,-3.01144 c 1.23466,-1.65629 3.87466,-3.97144 5.86667,-5.14477 3.58287,-2.11039 5.54022,-2.13334 181.943667,-2.13334 H 413.6233 l 2.9456,2.19925 c 1.6201,1.20958 3.9352,3.5246 5.1448,5.14449 2.1745,2.91214 2.2024,3.94422 2.4838,91.817581 0.1831,57.17725 -0.095,89.86958 -0.7786,91.6686 -1.6642,4.37718 -5.5465,5.62123 -9.7963,3.13918 -1.9236,-1.12345 -3.8274,-3.2261 -4.2306,-4.67254 -0.4032,-1.44644 -0.7809,-41.09392 -0.8394,-88.10549 l -0.1063,-85.475591 -2.4,-0.64317 c -1.32,-0.35375 -79.22403,-0.64973 -173.12002,-0.65774 -131.3763,-0.0112 -171.014977,0.28042 -171.999987,1.26543 -1.86129,1.86129 -1.86129,345.445361 0,347.306651 0.9747,0.9747 22.10262,1.28 88.581807,1.28 h 87.30182 l 2.61817,2.61818 c 3.43798,3.43797 3.36433,7.30674 -0.19233,10.1044 -2.79342,2.1973 -3.3531,2.21049 -91.99999,2.169 -71.740647,-0.0336 -89.825867,-0.31894 -92.442357,-1.45862 z M 163.27663,364.6752 c -6.58208,-1.37032 -11.06908,-4.26628 -13.23848,-8.54427 -1.76071,-3.47203 -1.85808,-11.0329 -1.6,-124.23037 0.26051,-114.26466 0.37513,-120.68111 2.20393,-123.37477 1.06103,-1.56278 3.70103,-3.72279 5.86667,-4.8 3.54309,-1.76236 7.57051,-1.99211 40.2042,-2.29348 37.87485,-0.34977 59.58397,0.76035 70.39999,3.59998 25.59617,6.71999 42.67987,23.90075 49.78541,50.06827 3.21667,11.84598 3.49874,42.82448 0.5002,54.93333 -6.0412,24.39587 -21.08455,41.79096 -43.09462,49.83166 -13.73495,5.01764 -19.62091,5.77976 -50.39098,6.52477 l -29.33334,0.71023 -0.53333,44.42262 c -0.51035,42.50835 -0.62526,44.52601 -2.66667,46.82153 -4.77674,5.37138 -18.19328,8.3936 -28.10298,6.3305 z m 81.50708,-134.467 c 17.2299,-3.15516 26.94084,-14.61481 29.39643,-34.69002 2.04409,-16.71095 -1.23262,-32.6307 -8.64172,-41.98546 -4.53051,-5.72022 -14.20423,-10.52153 -23.67707,-11.75154 -10.62801,-1.38 -43.16058,-1.36323 -45.75186,0.0236 -1.98818,1.06405 -2.06321,2.68992 -2.06321,44.71112 0,33.88747 0.29719,43.72682 1.33333,44.14492 2.61813,1.05644 43.19338,0.68473 49.4041,-0.45259 z"
     style="fill:#020404;stroke-width:1.0666666" />
  <path
     sodipodi:nodetypes="zcczccccczccccczcccccsccccccccscccccscczzscccccscccsscccccs"
     inkscape:connector-curvature="0"
     id="path3800"
     style="font-style:normal;font-variant:normal;font-weight:normal;font-stretch:normal;font-size:medium;line-height:1.25;font-family:Tahoma;-inkscape-font-specification:Tahoma;letter-spacing:0px;word-spacing:0px;fill:#000000;fill-opacity:1;stroke:#b06813;stroke-width:1.35027027;stroke-miterlimit:4;stroke-dasharray:none;stroke-opacity:1"
     d="M 414.3017,331.29753 C 415.173,330.44054 416,330.55629 416,330.55629 h 9.1562 c 0,0 0.5353,0.0749 0.7776,0.47006 0.2422,0.3951 0.1157,0.94575 0.1157,0.94575 l -2.9879,13.06368 c 3.7662,0.84588 7.37,1.94055 10.8114,3.28401 3.5064,1.2937 7.0128,2.78643 10.5192,4.47819 v 16.45664 c 0,0 -0.029,0.67126 -0.3103,1.01822 -0.2811,0.34696 -0.9559,0.36328 -0.9559,0.36328 -2.7273,-2.68692 -6.0713,-5.1748 -10.0322,-7.46366 -3.896,-2.3386 -8.2141,-4.15477 -12.9542,-5.44847 l -9.8373,42.76675 h 32.6931 c 0,0 0.9938,0.094 1.4494,0.65625 0.4557,0.5623 0.5318,1.67013 0.5318,1.67013 v 46.18739 c -2.922,1.2937 -5.8765,2.51276 -8.8634,3.65718 -2.922,1.14443 -6.0063,2.16447 -9.2529,3.06011 -3.1818,0.84588 -6.5258,1.51761 -10.0322,2.01518 -3.5064,0.54734 -7.2725,0.82101 -11.2983,0.82101 -1.3637,0 -2.7598,-0.0497 -4.1882,-0.14927 -1.3637,-0.0497 -2.7597,-0.17415 -4.1882,-0.37319 l -3.896,17.09177 h -12.46705 l 4.48032,-19.77869 c -3.31152,-1.14443 -6.52577,-2.61228 -9.64253,-4.40355 -3.05187,-1.84103 -5.90888,-4.1299 -8.57112,-6.86657 -4.87006,-4.97576 -8.60371,-11.07108 -11.20096,-18.28595 -2.53236,-7.21487 -3.79855,-15.57417 -3.79855,-25.07789 0,-5.07529 0.45453,-10.02618 1.36357,-14.85267 0.97393,-4.8265 2.43498,-9.35445 4.38294,-13.58386 2.01295,-4.27916 4.48043,-8.18514 7.40242,-11.71794 2.98689,-3.58255 6.49328,-6.64265 10.51908,-9.18029 4.0908,-2.58741 8.701,-4.57772 13.83068,-5.97093 5.1946,-1.44297 10.9412,-2.16445 17.2398,-2.16445 0.7142,0 1.396,0.0249 2.0453,0.0746 0.7143,0 1.4286,0.0249 2.1428,0.0746 0,0 2.1911,-9.81135 2.3704,-10.41421 0.1794,-0.60285 0.076,-0.82502 0.9472,-1.68201 z m -42.17995,68.9693 c 0,3.5328 0.22726,7.23975 0.68178,11.12085 0.51951,3.88111 1.39616,7.68757 2.62985,11.4194 1.23368,3.68207 2.92199,7.14023 5.06472,10.37448 2.14273,3.18449 4.83746,5.84653 8.0842,7.98611 l 19.4798,-85.16031 h -0.974 c -5.8439,0 -10.9736,1.21906 -15.389,3.65719 -4.35059,2.38837 -7.98675,5.62262 -10.90875,9.70275 -2.85711,4.08013 -5.03233,8.80711 -6.52577,14.18094 -1.42856,5.32408 -2.14283,10.89694 -2.14283,16.71859 z m 33.40805,45.52831 c 3.7011,0 7.2724,-0.27367 10.7139,-0.82101 3.4414,-0.54733 6.6556,-1.46785 9.6426,-2.76155 V 413.4775 h -18.5059 l -7.305,31.94445 c 1.8181,0.24879 3.6362,0.37319 5.4544,0.37319 z" />
</svg>
